<?xml version="1.0" standalone="no"?>
<svg xmlns:xlink="http://www.w3.org/1999/xlink" id="wave" style="transform:rotate(0deg); transition: 0.3s" viewBox="0 0 1440 490" version="1.1" xmlns="http://www.w3.org/2000/svg"><defs><linearGradient id="sw-gradient-0" x1="0" x2="0" y1="1" y2="0"><stop stop-color="rgba(11, 129, 133, 1)" offset="0%"/><stop stop-color="rgba(11, 129, 133, 1)" offset="100%"/></linearGradient></defs><path style="transform:translate(0, 0px); opacity:1" fill="url(#sw-gradient-0)" d="M0,49L240,65.3C480,82,960,114,1440,114.3C1920,114,2400,82,2880,114.3C3360,147,3840,245,4320,269.5C4800,294,5280,245,5760,228.7C6240,212,6720,229,7200,236.8C7680,245,8160,245,8640,277.7C9120,310,9600,376,10080,400.2C10560,425,11040,408,11520,392C12000,376,12480,359,12960,334.8C13440,310,13920,278,14400,236.8C14880,196,15360,147,15840,130.7C16320,114,16800,131,17280,138.8C17760,147,18240,147,18720,187.8C19200,229,19680,310,20160,285.8C20640,261,21120,131,21600,122.5C22080,114,22560,229,23040,245C23520,261,24000,180,24480,147C24960,114,25440,131,25920,179.7C26400,229,26880,310,27360,310.3C27840,310,28320,229,28800,212.3C29280,196,29760,245,30240,228.7C30720,212,31200,131,31680,81.7C32160,33,32640,16,33120,57.2C33600,98,34080,196,34320,245L34560,294L34560,490L34320,490C34080,490,33600,490,33120,490C32640,490,32160,490,31680,490C31200,490,30720,490,30240,490C29760,490,29280,490,28800,490C28320,490,27840,490,27360,490C26880,490,26400,490,25920,490C25440,490,24960,490,24480,490C24000,490,23520,490,23040,490C22560,490,22080,490,21600,490C21120,490,20640,490,20160,490C19680,490,19200,490,18720,490C18240,490,17760,490,17280,490C16800,490,16320,490,15840,490C15360,490,14880,490,14400,490C13920,490,13440,490,12960,490C12480,490,12000,490,11520,490C11040,490,10560,490,10080,490C9600,490,9120,490,8640,490C8160,490,7680,490,7200,490C6720,490,6240,490,5760,490C5280,490,4800,490,4320,490C3840,490,3360,490,2880,490C2400,490,1920,490,1440,490C960,490,480,490,240,490L0,490Z"/></svg>